# xmcd
#
# Track frame offsets: 
#        183
#        16628
#        34758
#        53568
#        77728
#        94848
#        109898
#        128870
#        145223
#        166438
#
# Disc length: 2432 seconds
#
# Revision: 1
# Processed by: cddbd v1.5PL3 Copyright (c) Steve Scherf et al.
# Submitted via: ExactAudioCopy v0.95a3
#
DISCID=79097e0a
DTITLE=Dance With A Stranger - Fool's Paradise
DYEAR=1989
DGENRE=Rock
TTITLE0=Do What You Wanna Do
TTITLE1=The Invisible Man
TTITLE2=Stop Looking For Love (Through Blue Eyes)
TTITLE3=African Road
TTITLE4=Fool's Paradise
TTITLE5=Explosion Of Time
TTITLE6=Another Day
TTITLE7=Hey Joann
TTITLE8=Show What You Got
TTITLE9=Little Woman
EXTD=
EXTT0=
EXTT1=
EXTT2=
EXTT3=
EXTT4=
EXTT5=
EXTT6=
EXTT7=
EXTT8=
EXTT9=
PLAYORDER=
